<svg xmlns="http://www.w3.org/2000/svg" width="865.76" height="682.89" viewBox="0 0 865.76 682.89"><polygon points="209.01 83.31 151.35 83.31 151.35 139.18 171.13 139.18 181.1 150.28 189.33 139.18 209.01 139.18 209.01 83.31" fill="#fff"/><path d="M181.14,151.07l-10.23-11.39H150.85V82.81h58.66v56.87H189.58Zm-29.29-12.39h19.5l9.71,10.81,8-10.81h19.43V83.81H151.85Z" fill="#2f2e41"/><path d="M170.7,104.25h5.13a4.36,4.36,0,0,1,4.34-4.38h.13a4.14,4.14,0,0,1,4,2.65,4.58,4.58,0,0,1-.36,4.15c-.87,1.43-2.78,2.73-6.23,2.13v11.6h5.07v-6.82a9.9,9.9,0,0,0,7.1-9.67c0-7.49-6.72-9.23-9.59-9.23C178.1,94.68,170.6,95.21,170.7,104.25Z" fill="#0071f2"/><rect x="177.71" y="122.73" width="5.14" height="4.8" fill="#0071f2"/><path d="M72.77,253.35l-10.21,3.13s2.63,8.57-6.23,11.45a8.61,8.61,0,0,1-9.59-2.82,9.59,9.59,0,0,1-1.81-8.48c.86-3.38,3.84-7.19,11.1-8l-7.06-23-10.09,3.09,4.19,13.48s-13,8-8.25,23.59c4.58,14.91,19,14.28,24.75,12.52C63.88,276.92,78.48,271.3,72.77,253.35Z" fill="#e0e0e0"/><rect x="35.6" y="212.63" width="10.71" height="10" transform="translate(-62.01 21.57) rotate(-17.05)" fill="#e0e0e0"/><path d="M278.09,426.14l-5.76,1.76a5.09,5.09,0,0,1-3.32,6.39l-.19.06a4.86,4.86,0,0,1-5.42-1.58,5.4,5.4,0,0,1-1-4.8c.49-1.92,2.18-4,6.26-4.53l-4-13-5.77,1.81,2.4,7.61a11.59,11.59,0,0,0-4.65,13.29c2.57,8.4,10.72,8.06,13.94,7.07C273.05,439.42,281.29,436.26,278.09,426.14Z" fill="#e0e0e0"/><rect x="257.11" y="403.16" width="6.04" height="5.64" transform="matrix(0.96, -0.29, 0.29, 0.96, -107.6, 94.12)" fill="#e0e0e0"/><path d="M749,73.07l6-.31a5.11,5.11,0,0,1,4.83-5.39H760a4.88,4.88,0,0,1,4.93,2.87,5.38,5.38,0,0,1-.19,4.89c-.94,1.72-3.08,3.37-7.19,2.85l.68,13.56,6-.3-.49-7.93a11.63,11.63,0,0,0,7.76-11.77c-.44-8.79-8.39-10.43-11.8-10.26C757.11,61.4,748.35,62.47,749,73.07Z" fill="#e0e0e0"/><rect x="758.44" y="94.18" width="6.04" height="5.64" transform="translate(-3.91 38.38) rotate(-2.88)" fill="#e0e0e0"/><path d="M247.74,77.28l6-.3a5.12,5.12,0,0,1,4.83-5.4h.15a4.88,4.88,0,0,1,4.87,2.86,5.46,5.46,0,0,1-.18,4.9c-.94,1.74-3.1,3.37-7.2,2.86l.69,13.55,6-.3-.38-7.94a11.62,11.62,0,0,0,7.76-11.76c-.45-8.79-8.4-10.43-11.8-10.26C255.84,65.61,247.09,66.68,247.74,77.28Z" fill="#e0e0e0"/><rect x="257.17" y="98.39" width="6.04" height="5.64" transform="translate(-4.76 13.2) rotate(-2.88)" fill="#e0e0e0"/><path d="M828.2,172.79l-9.08,5.66s4.71,7.62-3.12,12.65a8.63,8.63,0,0,1-10-.29,9.63,9.63,0,0,1-3.91-7.8c0-3.49,1.92-7.88,8.71-10.59L798.15,152l-9,5.56,7.41,12s-10.58,11-2,24.9c8.2,13.28,22,9,27.11,5.85C825.59,197.84,838.27,188.69,828.2,172.79Z" fill="#ebebeb"/><rect x="783.04" y="141.32" width="10.71" height="10" transform="translate(40.84 436.37) rotate(-31.72)" fill="#ebebeb"/><path d="M274.76,253.92l6.53,4.8s4-5.48,9.79-1.39a6.53,6.53,0,0,1,2.63,7.12,7.24,7.24,0,0,1-4.34,4.94c-2.4,1-6.09.89-9.92-3.11L268.66,281l6.45,4.73,6.33-8.61s10.8,4.32,18.1-5.66c7-9.59.08-18-3.6-20.72C293.13,248.66,283.11,242.33,274.76,253.92Z" fill="#fafafa"/><rect x="263.65" y="285.4" width="7.59" height="8.12" transform="matrix(0.59, -0.81, 0.81, 0.59, -124.19, 333.5)" fill="#fafafa"/><path d="M621.38,86.56l6.53,4.79s4-5.48,9.78-1.39a6.55,6.55,0,0,1,2.64,7.13A7.3,7.3,0,0,1,636,102c-2.4,1-6.1.88-9.92-3.12l-10.79,14.7,6.44,4.79,6.33-8.62s10.79,4.32,18.09-5.64c7-9.6.1-18-3.6-20.74C639.75,81.33,629.72,75,621.38,86.56Z" fill="#fafafa"/><rect x="610.27" y="117.99" width="7.59" height="8.12" transform="translate(152.02 544.53) rotate(-53.68)" fill="#fafafa"/><path d="M306.76,339v33.93H229.81V517.72H192.53V183.18H325.4V217.1H229.81V339Z" fill="#0071f2"/><path d="M361.83,450.33l-12.9,67.39h-34.4l64-334.54h54l64,334.54H459.33l-12.91-67.39Zm4.8-32h74.53l-37.75-193.1Z" fill="#0071f2"/><path d="M666.1,264V437c0,20.55-4.3,38.71-12.91,52.09,3.83,8.13,10,10.52,20.56,10.52h4.79v33h-6.21c-21,0-34.89-7.64-42.54-21.5-10.52,6.21-24.37,10-40.63,10-51.13,0-76.46-33.46-76.46-84.12V264c0-51.14,25.33-84.12,76.46-84.12C640.77,179.83,666.1,212.81,666.1,264ZM549.49,262V438.86c0,30.59,12.9,48.27,39.66,48.27,27.24,0,39.68-17.68,39.68-48.27V262c0-30.11-12.44-48.26-39.68-48.26-26.76,0-39.66,18.15-39.66,48.26Z" fill="#0071f2"/><g opacity="0.5"><path d="M306.76,339v33.93H229.81V517.72H192.53V183.18H325.4V217.1H229.81V339Z" fill="#fff"/><path d="M361.83,450.33l-12.9,67.39h-34.4l64-334.54h54l64,334.54H459.33l-12.91-67.39Zm4.8-32h74.53l-37.75-193.1Z" fill="#fff"/><path d="M666.1,264V437c0,20.55-4.3,38.71-12.91,52.09,3.83,8.13,10,10.52,20.56,10.52h4.79v33h-6.21c-21,0-34.89-7.64-42.54-21.5-10.52,6.21-24.37,10-40.63,10-51.13,0-76.46-33.46-76.46-84.12V264c0-51.14,25.33-84.12,76.46-84.12C640.77,179.83,666.1,212.81,666.1,264ZM549.49,262V438.86c0,30.59,12.9,48.27,39.66,48.27,27.24,0,39.68-17.68,39.68-48.27V262c0-30.11-12.44-48.26-39.68-48.26-26.76,0-39.66,18.15-39.66,48.26Z" fill="#fff"/></g><path d="M338.68,450.33l-12.91,67.39H291.36l64-334.54h54l64,334.54H436.17l-12.9-67.39Zm4.79-32H418l-37.77-193.1Z" fill="#0071f2"/><path d="M338.68,450.33l-12.91,67.39H291.36l64-334.54h54l64,334.54H436.17l-12.9-67.39Zm4.79-32H418l-37.77-193.1Z" fill="#fff" opacity="0.3"/><path d="M291.67,339.13v33.93H214.73V517.91H177.45V183.37H310.31V217.3H214.73V339.13Z" fill="#0071f2"/><path d="M291.67,339.13v33.93H214.73V517.91H177.45V183.37H310.31V217.3H214.73V339.13Z" fill="#fff" opacity="0.3"/><path d="M642.94,263.59v173c0,20.55-4.3,38.72-12.9,52.1,3.82,8.12,10,10.51,20.55,10.51h4.8v32.94h-6.21c-21,0-34.9-7.65-42.53-21.51-10.52,6.21-24.38,10-40.63,10-51.14,0-76.46-33.46-76.46-84.12v-173c0-51.14,25.32-84.12,76.46-84.12C617.61,179.51,642.94,212.48,642.94,263.59ZM526.3,261.72V438.55c0,30.59,12.9,48.26,39.66,48.26,27.24,0,39.67-17.67,39.67-48.26V261.72c0-30.11-12.43-48.28-39.67-48.28C539.23,213.44,526.3,231.61,526.3,261.72Z" fill="#0071f2"/><path d="M642.94,263.59v173c0,20.55-4.3,38.72-12.9,52.1,3.82,8.12,10,10.51,20.55,10.51h4.8v32.94h-6.21c-21,0-34.9-7.65-42.53-21.51-10.52,6.21-24.38,10-40.63,10-51.14,0-76.46-33.46-76.46-84.12v-173c0-51.14,25.32-84.12,76.46-84.12C617.61,179.51,642.94,212.48,642.94,263.59ZM526.3,261.72V438.55c0,30.59,12.9,48.26,39.66,48.26,27.24,0,39.67-17.67,39.67-48.26V261.72c0-30.11-12.43-48.28-39.67-48.28C539.23,213.44,526.3,231.61,526.3,261.72Z" fill="#fff" opacity="0.3"/><path d="M660.84,326.57s-9.48,32.95.47,100.91A136.21,136.21,0,0,1,663,469.87s-10.19,37.66-11.84,79.57l21.07,1.42s21.55-80,20.37-98l-1.19-44s-2.6-48.55.24-56.13c0,0,6.87,52.1,9,69.62l4.74,30.08a167.77,167.77,0,0,1,0,39.83s-1.71,16,1.15,39l2.16,18.76h22.5l2.37-62.29.94-72s-9.94-77.7-18.23-94.75C716.25,320.89,671.38,326.81,660.84,326.57Z" fill="#2f2e41"/><path d="M730.69,302.69s.14.68,1.56.38a11.8,11.8,0,0,0,1-.85A2.52,2.52,0,0,0,730.69,302.69Z" fill="#0071f2"/><path d="M730.69,302.69s.14.68,1.56.38a11.8,11.8,0,0,0,1-.85A2.52,2.52,0,0,0,730.69,302.69Z" opacity="0.3"/><path d="M681.91,234.2s-5.68,1-15.15,6.09c0,0-5.92,2.48-4.27,40.61,0,0-2.77,33.68-4.51,44.86a2.05,2.05,0,0,0,2.14,2.36c10.22-.59,47.76-2.93,61.29-6.27a2.73,2.73,0,0,0,2.05-3.07L716,270.24l-7.14-32.39a40.69,40.69,0,0,0-10.38-3.65Z" fill="#0071f2"/><path d="M708.2,201.8s4.5,32-9.71,28.42v9.63a7.72,7.72,0,0,1-4.68,5.18,9.72,9.72,0,0,1-9.15-.93,9.33,9.33,0,0,1-1.64-1.43,4.37,4.37,0,0,1-1.11-2.9V217.88l1.66-6.6v-1.9a23.29,23.29,0,0,0,9.24-4.5S706.3,191.62,708.2,201.8Z" fill="#f9b499"/><path d="M698.49,230.22a16.05,16.05,0,0,1-7.82-3.31s2.37,6.13,7.82,9.22Z" fill="#f7a48b"/><path d="M698.49,232.26l7.76-.64a6.53,6.53,0,0,0,5.86-5.05C714.2,217.19,710,198,710,198c4.43,9.41,4.11,27.29,4.11,27.29,2.37-21.31-5.25-31.43-5.25-31.43-5.24-13.19-15.35-5.28-15.35-5.28C671.73,163,666.76,230.7,666.76,230.7c5.21,3.55,15.15,2.52,15.15,2.52V217.88l1.66-6.6v-1.9s3.55,0,9.24-4.5c0,0,10-9.94,14.14-5.92,0,0,1.21.88,1.47,4.7,0,0,3.8,30.11-9.93,26.56Z" fill="#2f2e41"/><path d="M708.87,237.85,716,270.24s6.53,9.26,14.22,14.49a3,3,0,0,1,1.32,2.64l-.86,15.32s8.06-3.79,8.29,10.18c0,0,13.26-15.16,5.21-32.92l-13.51-19.63a44.58,44.58,0,0,0-3.78-4.78C723,251.26,714.67,242.3,708.87,237.85Z" fill="#0071f2"/><path d="M708.87,237.85,716,270.24s6.53,9.26,14.22,14.49a3,3,0,0,1,1.32,2.64l-.86,15.32s8.06-3.79,8.29,10.18c0,0,13.26-15.16,5.21-32.92l-13.51-19.63a44.58,44.58,0,0,0-3.78-4.78C723,251.26,714.67,242.3,708.87,237.85Z" opacity="0.2"/><path d="M684.75,303.63s5.82-7.91,9.19-9.68a1.49,1.49,0,0,1,2.21,1.36,6.16,6.16,0,0,1-1.37,3.17s4.48-3.48,14.73-4.28a.88.88,0,0,1,.92.65c.27,1.08-.29,3.16-7.87,4.21a.61.61,0,0,0-.52.61h0a.6.6,0,0,0,.65.6l7.4-.49a3.32,3.32,0,0,1,3.52,3.83c-.44,2.47-2.88,5.62-11.1,8.07a67.15,67.15,0,0,1-17.76,5Z" fill="#f9b499"/><path d="M685.23,580c-14.21,4-37.18-2.37-37.18-2.37l3.08-28.18,21.07,1.42L668.41,567c-.94,6.63,2.13,7.1,2.13,7.1Z" fill="#f9b499"/><path d="M749.64,580.7c-26.52,1.42-39.31-3.31-39.31-3.31,1.42-9.71-1.66-27.47-1.66-27.47h22.5l-1.87,18.92a4.25,4.25,0,0,0,.83,3c5.33,7.06,17.22,8.64,19.22,8.86Z" fill="#f9b499"/><path d="M768.35,588.52l-59.68.06a23.81,23.81,0,0,1,1.66-11.19s12.79,4.73,39.31,3.31C772.61,584.73,768.35,588.52,768.35,588.52Z" fill="#0071f2"/><path d="M704.42,588.58H646.64c-.93-8,1.41-11,1.41-11s23,6.4,37.18,2.37C705.36,581.89,704.42,588.58,704.42,588.58Z" fill="#0071f2"/><ellipse cx="682.15" cy="213.85" rx="3.69" ry="5.09" fill="#f9b499"/><path d="M684.75,303.63v13.09s-58.5-.06-58.38-13.09c0,0-1.53-1.65,4.63-12.55,0,0,24.39-60.15,37.18-50,0,0,9.47,4.78-1.42,27l-11.28,23.8s-3.88,4.61,2,5.91C657.52,297.84,668.65,300.08,684.75,303.63Z" fill="#0071f2"/><path d="M684.75,303.63v13.09s-58.5-.06-58.38-13.09c0,0-1.53-1.65,4.63-12.55,0,0,24.39-60.15,37.18-50,0,0,9.47,4.78-1.42,27l-11.28,23.8s-3.88,4.61,2,5.91C657.52,297.84,668.65,300.08,684.75,303.63Z" opacity="0.2"/><path d="M712.37,300.47a21.15,21.15,0,0,1-9,2.3,21.3,21.3,0,0,1,9-2.3Z" fill="#f7a48b"/><path d="M713.61,303.61a24.89,24.89,0,0,1-9.67,2.83,25,25,0,0,1,9.67-2.83Z" fill="#f7a48b"/><path d="M712,288.68l-2,.09a.94.94,0,0,0-.87.72l-7.42,30.7a.65.65,0,0,0,.64.8h2.58Z" fill="#fff"/><path d="M702.78,319.92l7.63-30.58a.85.85,0,0,1,.83-.66H724.4a.87.87,0,0,1,.83,1.09l-8.18,30.58a.88.88,0,0,1-.84.64H703.62A.86.86,0,0,1,702.78,319.92Z" fill="#2f2e41"/><path d="M739,312.87s-1.65,5.92-17.76,7.58c0,0-7.37,2.2-6.65-2.22,0,0-7.32-.15-4.48-4.18a7.37,7.37,0,0,1-2.76-.27,1.41,1.41,0,0,1-.18-2.6,5.5,5.5,0,0,1,2.47-.44h7.43a.94.94,0,0,0,.93-1h0a.94.94,0,0,0-1-.86l-10.87.39a1.68,1.68,0,0,1-1.74-1.68h0A1.68,1.68,0,0,1,706,305.9l16.66-1.08a11.91,11.91,0,0,0-3.08-4.27s-1.89-1.65-.47-3.31c0,0,.71-1.9,5.45,3.08,0,0,4.8,6.18,8.68,1.9C733.22,302.22,738.75,301.5,739,312.87Z" fill="#f9b499"/><path d="M710.09,314.05a16.3,16.3,0,0,1,8.12,0,16.18,16.18,0,0,1-8.12,0Z" fill="#f7a48b"/><path d="M714.57,318.23a9.93,9.93,0,0,1,6.3-.3,9.92,9.92,0,0,1-6.3.3Z" fill="#f7a48b"/><path d="M116.5,543.46V553.7a10.77,10.77,0,0,1,4.87,8.25s3.66-2.85,11.77-3.62V543.46Z" fill="#f9b499"/><path d="M128.5,279.65a58.61,58.61,0,0,1-19.87,25.76,59.61,59.61,0,0,0-6.76,5.74L99,314a16.54,16.54,0,0,0,12.73,7s25.53-15,30.78-26.26Z" fill="#f9b499"/><path d="M218.66,263.17l-2.08,24-4.16-.69.83,51.92.09,6.08c-42.28,12.24-69.78-.7-69.78-.7.28-1.31.62-3.87,1-7.18,1.67-15.34,3.86-46.89,3.86-46.89l-4.39,6.7-16.87-18.25a189.91,189.91,0,0,1,13.64-20.34c6.22-8.3,17-11.8,22-13,1.69-.42,2.72-.58,2.72-.58l16.45-2.36h4.19C221.49,244.16,218.66,263.17,218.66,263.17Z" fill="#2f2e41"/><path d="M186.11,241.88c-3.67,11.52-11.59,10.89-11.59,10.89-6.65-.74-10.49-5.91-11.77-8,1.69-.42,2.72-.58,2.72-.58l16.45-2.36Z" fill="#0071f2"/><polygon points="127.15 278.19 130.21 273.04 147.59 291 144.02 296.44 127.15 278.19" fill="#0071f2"/><polygon points="192.02 282.12 189.77 281.65 184.51 295.83 164.02 287.2 165.74 289.28 187.69 300.6 192.02 282.12" opacity="0.2"/><path d="M212.42,286.51c-.86,38.49-12.53,41.36-14.14,41.57l-.53.09c-11.1,1.93-24.93-11.68-25.34-12.08,6.74,5.14,15.56,9.48,25.68,8.78,0,0,8.32,0,11.56-20.34Z" opacity="0.2"/><path d="M213.34,344.51c-42.28,12.24-69.78-.7-69.78-.7.28-1.31.62-3.87,1-7.18,9.81,3.49,38.68,11.81,68.7,1.8Z" opacity="0.2"/><polygon points="99.97 300.6 112.59 341.97 147.59 341.97 135.83 302 99.97 300.6" fill="#0071f2"/><polygon points="137.37 301.37 135.83 302 147.59 341.97 149.1 341.04 137.37 301.37" fill="#0071f2"/><polygon points="137.37 301.37 135.83 302 147.59 341.97 149.1 341.04 137.37 301.37" opacity="0.2"/><path d="M143.56,343.81l-40,63.78s-15.71,22.18-11.32,51.76c0,0,4.16,52.69,17.56,84.11h18.84l.11,4.86a22.5,22.5,0,0,0,2.86,2c4.33,2.63,13.14,6.48,23.25,2.61a26.44,26.44,0,0,0,3-1.37S181.4,442.91,198,385.82a40.51,40.51,0,0,1,3.56-8.52c3.26-5.8,9.46-18.27,11.79-32.79C213.34,344.51,176.83,357,143.56,343.81Zm-3.62,105.38-5.62,36.74L126,443.87l21.72-30.5Z" fill="#0071f2"/><path d="M126,543.46s2-42.44,6.79-65.24l1.53,7.71-5.66,57.53Z" opacity="0.2"/><path d="M139.76,424.55s11.82-57.3,21-76.06l-13,64.88Z" opacity="0.2"/><path d="M138.24,558.71a81.74,81.74,0,0,1,2.31,11.56l-2.31,16.4H84.1l-6.4-7.16L93,568.42l18.14-9.5a7.25,7.25,0,0,0,2.76-2.51,6.46,6.46,0,0,0,1.14-3.58,11,11,0,0,1,6.38,9.12A24.1,24.1,0,0,1,138.24,558.71Z" fill="#0071f2"/><path d="M138.24,558.71a81.74,81.74,0,0,1,2.31,11.56l-2.31,16.4H84.1l-6.4-7.16L93,568.42l18.14-9.5a7.25,7.25,0,0,0,2.76-2.51,6.46,6.46,0,0,0,1.14-3.58,11,11,0,0,1,6.38,9.12A24.1,24.1,0,0,1,138.24,558.71Z" opacity="0.2"/><path d="M93.73,568s.84,6,10.55,3c0,0,16.38-7.84,35-8.08l-1-4.17s-6.7-2.31-16.87,3.24a10.94,10.94,0,0,0-6.38-9.12,6.08,6.08,0,0,1-.33,2,7.3,7.3,0,0,1-3.56,4.12Z" fill="#2f2e41"/><path d="M93,568.42s.7,3-8.55,7.39c0,0-3.69,2.31-3,4.16h19.78s8.64-.24,12.34,5.54h15.13s-.11-14.38,13.1-15a1,1,0,0,1,1,.82L145,586.42a1,1,0,0,1-1,1.18H76.15a3.79,3.79,0,0,1-3.6-2.6c-.87-2.68-.67-6.9,6.77-10.11Z" fill="#2f2e41"/><g opacity="0.2"><path d="M93.73,568s.84,6,10.55,3c0,0,16.38-7.84,35-8.08l-1-4.17s-6.7-2.31-16.87,3.24a10.94,10.94,0,0,0-6.38-9.12,6.08,6.08,0,0,1-.33,2,7.3,7.3,0,0,1-3.56,4.12Z"/><path d="M93,568.42s.7,3-8.55,7.39c0,0-3.69,2.31-3,4.16h19.78s8.64-.24,12.34,5.54h15.13s-.11-14.38,13.1-15a1,1,0,0,1,1,.82L145,586.42a1,1,0,0,1-1,1.18H76.15a3.79,3.79,0,0,1-3.6-2.6c-.87-2.68-.67-6.9,6.77-10.11Z"/></g><path d="M156,194.89s6.39-9.34,13.3-11.34a6.66,6.66,0,0,1,5.08.56c2.76,1.52,7.11,5.5,8.49,15.58l-11.23,4.49-14.36-4.24Z" fill="#0071f2"/><path d="M156,194.89s6.39-9.34,13.3-11.34a6.66,6.66,0,0,1,5.08.56c2.76,1.52,7.11,5.5,8.49,15.58l-11.23,4.49-14.36-4.24Z" opacity="0.2"/><path d="M164.82,185.78c-1,1.54-2.46,3.67-3.42,5.2a24.86,24.86,0,0,0-2.82,5.5c.41-3.45,3.88-8.17,6.24-10.7Z" opacity="0.2"/><path d="M170.22,183.29a60.27,60.27,0,0,0-6.74,13.33c-.26.67-.42,1.36-.65,2a33.33,33.33,0,0,1,7.39-15.38Z" opacity="0.2"/><path d="M172.09,183.35a37.77,37.77,0,0,1,3.28,17.07c-.06-.73-.06-1.45-.15-2.18a73.75,73.75,0,0,0-3.13-14.89Z" opacity="0.2"/><path d="M174.35,184.11a31.63,31.63,0,0,1,5.5,14.59c0,.35.08.7.11,1.05a55.3,55.3,0,0,0-5.61-15.64Z" opacity="0.2"/><path d="M164.82,232.44l.69,12.47s3.24,5.09,8.55,4.39c0,0,6-.23,7.86-6l-.83-25.1H177.3Z" fill="#f9b499"/><path d="M164.82,232.44l.52,9.44a20.84,20.84,0,0,0,7.91-15.14Z" fill="#f7a48b"/><path d="M181.09,218.2l-2.64-1.51L178,206.53l-11.32-4.16-12,4.39s-5.61,42.69,17.41,22.73A59.22,59.22,0,0,0,181.09,218.2Z" fill="#f9b499"/><path d="M154.05,199.94s-4.48-.12-3.56,5c0,0,1.09,4.19,6.33,1.06,0,0,1.76,1.71,7.31.09C164.13,206.06,156.91,204,154.05,199.94Z" fill="#2f2e41"/><path d="M178,206.53l.46,10.16,2.71,3.67.19,5.86s6.12-.05,5.88-6.52,0-5.9,0-5.9,5.08-1,.8-7.27c0,0-2-3-4.06-3h-2.89Z" fill="#2f2e41"/><path d="M181.92,205.35c2.49-1.12,2.56-2.93,2.13-4.26a2.48,2.48,0,0,0-3-1.6c-13.22,3.23-21.38-2-24.19-4.23a1.69,1.69,0,0,0-2.44.35,5.2,5.2,0,0,0-.79,4.09,3.26,3.26,0,0,0,1.29,2C158.18,204,169.44,211,181.92,205.35Z" fill="#0071f2"/><ellipse cx="179.96" cy="216.87" rx="2.89" ry="3.75" fill="#f9b499"/><polygon points="189.77 281.65 190.7 273.8 217.23 279.66 216.58 287.2 189.77 281.65" fill="#0071f2"/><path d="M212.42,286.51l-2.77,18c-3.24,20.34-11.56,20.34-11.56,20.34-10.12.7-18.94-3.64-25.68-8.78h0a66.68,66.68,0,0,1-14.05-14.78c-9-3-16.94-14.1-16.94-14.1l1.86,3.79a1.83,1.83,0,0,1,.19.82,1.87,1.87,0,0,1-3.44,1l-3.11-4.76c-2.95-4,1.1-4.35,1.1-4.35-.69-3.46,2.5-3.23,2.5-3.23-1.65-4.85,8.82-2.54,8.82-2.54l-9.93-8.32c-3.93-2.31-2-3.8-2-3.8,8.14-1.73,28.37,23.44,28.37,23.44,5.32,3.24,21.95,11.32,21.95,11.32L192,282.12Z" fill="#f9b499"/><path d="M101.93,316.81a15.59,15.59,0,0,0,9.76,4.21c16.29,1,14.77,3.15,14.77,3.15,0,1.85-12.71,2.08-12.71,2.08,17.33,2.08,14.75,4.84,14.75,4.84-.57,1-7.41,1-12.88.84a.51.51,0,0,0-.12,1c5.11,1.08,11,2.61,9.4,3.69-2.71,1.82-10.67,0-10.67,0,7.17,3.67,5,5.34,5,5.34C108.44,343.81,91.57,332,91.57,332c-5.78-4.61,0-13,0-13S95,312.62,99,314Z" fill="#f9b499"/><path d="M154.88,552.92v6.26c-8.09-2.08-16.87,3.23-16.87,3.23-.23-6.24-6.38-9.12-6.38-9.12v-3C136,552.94,144.77,556.79,154.88,552.92Z" fill="#f7a48b"/><path d="M154.88,559.18a81.37,81.37,0,0,1,2.31,11.55l-2.31,16.41H100.74L94.34,580l15.25-11.09,18.14-9.5a7.3,7.3,0,0,0,2.76-2.5,6.57,6.57,0,0,0,1.14-3.59,11,11,0,0,1,6.38,9.12A24.07,24.07,0,0,1,154.88,559.18Z" fill="#0071f2"/><path d="M109.59,568.88s.69,3-8.55,7.4c0,0-3.7,2.31-3,4.16h19.77s8.65-.25,12.35,5.53h15.13s-.11-14.37,13.1-15a1,1,0,0,1,1,.82l2.24,15.08a1,1,0,0,1-1,1.18H92.79a3.76,3.76,0,0,1-3.6-2.6c-.87-2.68-.67-6.9,6.77-10.11Z" fill="#2f2e41"/><path d="M110.37,568.47s.84,6,10.54,2.95c0,0,16.39-7.83,35-8.07l-1-4.17s-6.7-2.31-16.87,3.23a10.94,10.94,0,0,0-6.38-9.12,6,6,0,0,1-.34,2,7.3,7.3,0,0,1-3.55,4.13Z" fill="#2f2e41"/><path d="M532.65,560.66c-2.46,15.73-9.86,26.55-19.61,33.93-21.59,16.35-54.72,15.82-71.11,14.33a69.35,69.35,0,0,1-13.12-2.39c-12-3.52-26-.19-26-.19-39.82,7.28-59.5,0-59.5,0-34.56-11-45.16-36.19-47.9-55.65h0a84.29,84.29,0,0,1,.23-25.78c7.29-67.52,43.29-79.87,43.29-79.87l59-16.88,51.64,27.54c35.43,15.52,56.82,38,56.82,38C545.05,515.53,532.65,560.66,532.65,560.66Z" fill="#bcbec0"/><path d="M330.17,450.11s-16,35.74-4.07,45.67c0,0,21.18,20.53,14.56,27.15,0,0-4.72,6.77-5.82,20.56a6.18,6.18,0,0,1-2.85,4.7,69.2,69.2,0,0,1-10.73,5.43,14.87,14.87,0,0,0-2.54,1.31c-2.61,1.67-7.38,5.47-3.89,9,0,0,10.61-15.17,19.21-7.89,0,0,23.17,36.41,58.26,32.44,0,0,13.9-2,39.72-8.61,0,0,20.75-5.48,29.91-3.73,0,0,28.07,2.59,35.93-20a15.53,15.53,0,0,0-3.18-15.85,23.14,23.14,0,0,0-8.37-5.48l-53-76.79-46.69-26.66L338.93,445A52.6,52.6,0,0,0,330.17,450.11Z" opacity="0.2"/><path d="M381.47,397.65s-11.69-2.41-9-17c0,0,2-12.49,14.23-11.87,0,0,5.63-11.3,17.55-6,0,0,3.31.66,7.28,5.3l6,4s11.25,6.62,4,17.88c0,0-3.68,5-6.8,7.12l1.5-13.08s2-6.62-7.28-10.6c0,0-2,10.6-18.53,14.57l-6.62,11.92A6.85,6.85,0,0,1,381.47,397.65Z" fill="#2f2e41"/><path d="M408.84,374s12.27,2.58,11.62,12.26a23.86,23.86,0,0,1-6,10.82" opacity="0.2"/><path d="M376.4,415.1l-23,8.47s-9.93,3.31-13.24,17.21l-12.58,42.37s26.48,7.28,36.41,3.31l.67,23.17,45.68,6s4.49-1,5.88-13.38l.74-23,3.31,6.62s21.84-4.64,33.76-24.5l-21.19-26.48S423,422.24,413,418.93l-8.81-2.5Z" fill="#0071f2"/><path d="M327.62,483.15s30.46,3.31,32.44-8.61l7.28-27.8L366,485.8S360.72,491.76,327.62,483.15Z" opacity="0.2"/><path d="M417,479.18v-9.77s4-3.47,1.32-24L440,476.53s-6.4,5.3-19.64,9.27Z" opacity="0.2"/><path d="M452.86,463.21l27.69,28.55-31.49,9.4-18.73-19S442.39,477.7,452.86,463.21Z" fill="#f9b499"/><path d="M354.54,513.15s-18.31,38.19-4.41,50.77l68.19-4,35.75-26.12,6.62-15.59L420.9,515l-2.58-2.7S380.8,518,354.54,513.15Z" fill="#2f2e41"/><path d="M354.54,513.15s-18.31,38.19-4.41,50.77l68.19-4,35.75-26.12,6.62-15.59L420.9,515l-2.58-2.7S380.8,518,354.54,513.15Z" opacity="0.2"/><path d="M386.66,358.52s-8.92-7.06-20.84,4.2c0,0-5.35,2.07-6.65,17.91,0,0-5.16,46.19-22.43,23.74,0,0,.58,17.21,12.18,21.87,0,0,.64-1,5.79-3.14l21.69-8,4.64-1.32,2.65-13.9s-1.8-1.07-2.22-2.23c0,0-10.39-2.31-9.38-14.32a19.39,19.39,0,0,1,2.62-8.43l1.69-6.32Z" fill="#2f2e41"/><path d="M372.54,388.71s2.55,19.69-9.53,31.18l18-6.11,2.65-13.9s-1.8-1.07-2.22-2.23C381.47,397.65,374.43,395.82,372.54,388.71Z" opacity="0.2"/><path d="M397.6,546.76s30.94,22.85,57.84,34.59l17.15-34.59-57.78-29.13s-27.14-15.89-37.74-8.61c0,0-31.2,22.81-32.15,44.18,0,0-.29,10.11,14.28,17.39a21.84,21.84,0,0,0,4.68,1.19,20.6,20.6,0,0,0,18.68-7.2Z" fill="#2f2e41"/><path d="M472.59,549.59a46.13,46.13,0,0,1,9.75-2.83s10.59-3.31,10.59,7.94-9.7,13.23-31,13.57l8.53-17.21Z" fill="#f9b499"/><polygon points="429.33 467.27 422.29 520.09 498 520.09 504.48 467.27 429.33 467.27" fill="#0071f2"/><polygon points="429.33 467.27 422.29 520.09 498 520.09 504.48 467.27 429.33 467.27" fill="#fff" opacity="0.3"/><polygon points="429.33 467.27 426.06 467.32 420.77 516.97 413.63 516.97 416.51 518.53 422.29 520.09 429.33 467.27" fill="#0071f2"/><polygon points="429.33 467.27 422.29 520.09 416.51 518.53 413.63 516.97 420.77 516.97 421.32 511.78 422.8 497.94 426.06 467.31 429.33 467.27" fill="#fff" opacity="0.3"/><path d="M513,594.59c-16.3,28-75.18,21.82-75.18,21.82-14.7.15-67,4.79-67,4.79-82.49,6.86-75.52-69.5-75.42-70.51,2.74,19.46,13.34,44.64,47.9,55.65,0,0,19.68,7.28,59.5,0,0,0,14-3.33,26,.19a69.35,69.35,0,0,0,13.12,2.39C458.32,610.41,491.45,610.94,513,594.59Z" fill="#a7a9ac"/><polygon points="422.29 520.09 451.74 520.09 477.43 467.27 429.33 467.27 422.29 520.09" fill="#fff" opacity="0.3"/><path d="M376.4,415.1l-5.71,2.19s10,10.25,23.43,8.95c0,0,10-1.45,15.33-8.32l-5.24-1.49Z" opacity="0.2"/><path d="M386.66,368.81c-8.94-.53-12,6.09-12,6.09s-3.61-4.71,1.69-10.43c0,0,9.79-11.81,17.15-2.15a12.77,12.77,0,0,0-5.51,4.39Z" fill="#0071f2"/><path d="M390.31,388l-6.62,11.92L381,413.78l-4.64,1.32a14.28,14.28,0,0,0,1.38,1.43,20.32,20.32,0,0,0,18.67,4.6c5.84-1.51,7.76-4.7,7.76-4.7l-2.65-1.4v-4.56c2,2,9.27-3.31,9.27-3.31,4-3.31,3.31-6,3.31-6l2-17.21c1.33-7.28-7.28-10.6-7.28-10.6S406.86,384,390.31,388Z" fill="#f9b499"/><path d="M401.56,410.47s-8.4-4.12-10.38-6.1c0,0,1.56,7.42,10.38,10.66Z" fill="#f7a48b"/><ellipse cx="386.66" cy="393.92" rx="6.29" ry="6.62" fill="#f9b499"/><path d="M412.16,554s-4,3.31-2,7.28c0,0,2.63,19.83,13.23,21.17Z" fill="#2f2e41"/><path d="M412.16,554s-4,3.31-2,7.28c0,0,2.63,19.83,13.23,21.17Z" opacity="0.3"/><path d="M413.44,557.29s-10.55,3.37-35,3.37c0,0-12.58-.66-5.3,13.91,0,0,1.33,5.95,16.55,4,0,0,15.38-2.59,28.54-9.24Z" fill="#f9b499"/><path d="M422.8,497.94l-1.47,13.84-.43,3.2-2.58-2.7c-12.58,3.31-44.36,2.65-44.36,2.65-17.87-.66-26.48-3.23-26.48-3.23-11.25-1.9-8.15-25.9-8.15-25.9,17.66,4,24.7.66,24.7.66l.22,7.55,48.86,7.15A11.44,11.44,0,0,1,422.8,497.94Z" fill="#f9b499"/><path d="M339.33,485.8s17.42,4,24.7.66l.14,4.82A93.55,93.55,0,0,1,338.94,496S338.45,489.77,339.33,485.8Z" fill="#f7a48b"/><path d="M503.06,476.53s4-4,6.62-.66c0,0,1.32,1.32-4.63,5.29l-2,1.4s4.63,2.58,2,7.21a5,5,0,0,1,.66,6,5.22,5.22,0,0,1-3.31,4.63s.66,4-3.31,4.64c0,0-7.28,2-7.28-1.33,0,0-1-1.72,1.8-2.51,0,0-1.14-2.78,2.17-2.78,0,0-5.3-.67-.66-4.64,0,0-6.16-.72-.76-3.67l7.38-2.29Z" fill="#f9b499"/><path d="M495.12,493.74c3.45-.95,7-1.85,9.93-4-2.36,2.86-6.36,4-9.93,4Z" fill="#f7a48b"/><path d="M495.78,498.38a25.86,25.86,0,0,1,9.93-2.65,79.41,79.41,0,0,1-9.93,2.65Z" fill="#f7a48b"/><path d="M502.4,500.36c-2.58,1.39-6.1,2.36-8.79.8,3,.63,5.84-.29,8.79-.8Z" fill="#f7a48b"/><polygon points="446.04 576.91 436.92 572.09 470.46 551.06 446.04 576.91" opacity="0.2"/><path d="M483,542.13c-7.28,6-59.58,40.38-59.58,40.38v0L412.16,554l43.28-33.85a72.6,72.6,0,0,1,16.21-11.26C490.06,500,498,511.19,498,511.19,511,526.59,483,542.13,483,542.13Z" fill="#2f2e41"/><path d="M472.59,517.19l-45.86,34.2c-7.82,5.21-3.47,30.26-3.32,31.1L412.16,554l43.28-33.85a72.6,72.6,0,0,1,16.21-11.26Z" opacity="0.2"/><path d="M350,96h43a0,0,0,0,1,0,0v50a0,0,0,0,1,0,0H350a25,25,0,0,1-25-25v0A25,25,0,0,1,350,96Z" fill="#0071f2"/><path d="M570,146.5H350a25.5,25.5,0,0,1,0-51H570a25.5,25.5,0,0,1,0,51Zm-220-50a24.5,24.5,0,0,0,0,49H570a24.5,24.5,0,0,0,0-49Z" fill="#2f2e41"/><path d="M355.79,130.23a10.15,10.15,0,1,1,10.14-10.15A10.15,10.15,0,0,1,355.79,130.23Zm0-19.23a9.08,9.08,0,1,0,9.13,9.06,9.07,9.07,0,0,0-9.13-9.06Z" fill="#fff"/><rect x="367.09" y="123.57" width="1.09" height="9.95" transform="translate(38.94 337.45) rotate(-51.71)" fill="#fff"/></svg>