<?xml version="1.0" standalone="no"?>
<!DOCTYPE svg PUBLIC "-//W3C//DTD SVG 20010904//EN"
 "http://www.w3.org/TR/2001/REC-SVG-20010904/DTD/svg10.dtd">
<svg version="1.0" xmlns="http://www.w3.org/2000/svg"
 width="824.000000pt" height="824.000000pt" viewBox="0 0 824.000000 824.000000"
 preserveAspectRatio="xMidYMid meet">
<metadata>
Created by potrace 1.14, written by Peter Selinger 2001-2017
</metadata>
<g transform="translate(0.000000,824.000000) scale(0.100000,-0.100000)"
fill="#000000" stroke="none">
<path d="M2718 7080 c-15 -4 -60 -11 -100 -14 -40 -3 -84 -8 -98 -11 -14 -3
-40 -8 -59 -11 -83 -14 -237 -51 -330 -79 -88 -26 -234 -77 -286 -101 -191
-83 -351 -168 -467 -246 -31 -21 -62 -38 -67 -38 -6 0 -11 -3 -11 -8 0 -4 -18
-18 -40 -32 -22 -14 -40 -28 -40 -32 0 -4 -8 -9 -18 -12 -9 -3 -31 -18 -48
-33 -17 -16 -55 -48 -85 -73 -100 -83 -198 -178 -311 -302 -43 -48 -114 -136
-195 -243 -11 -14 -94 -141 -131 -200 -42 -68 -206 -400 -203 -412 0 -2 -9
-24 -20 -50 -23 -53 -87 -244 -92 -277 -2 -11 -6 -28 -9 -36 -7 -19 -27 -97
-33 -130 -9 -46 -24 -134 -29 -170 -3 -19 -7 -44 -10 -55 -20 -100 -29 -564
-12 -685 4 -30 9 -73 11 -95 4 -43 20 -144 30 -185 3 -14 8 -36 10 -50 1 -14
13 -63 25 -110 12 -47 23 -92 25 -100 7 -28 66 -205 75 -225 5 -11 19 -45 31
-75 22 -57 123 -267 161 -335 62 -108 119 -198 131 -203 4 -2 7 -8 7 -13 0 -6
5 -15 10 -22 6 -7 34 -43 62 -82 28 -38 54 -72 57 -75 3 -3 24 -27 46 -55 87
-108 288 -309 377 -377 16 -13 35 -27 41 -33 248 -212 692 -444 1027 -536 25
-7 50 -14 55 -16 21 -6 181 -43 205 -47 14 -2 52 -9 85 -15 160 -28 263 -36
490 -35 189 0 368 9 384 18 3 2 33 7 65 10 32 4 62 8 65 11 4 2 25 6 47 9 61
8 252 56 334 84 8 3 20 6 25 8 94 23 493 197 515 224 7 9 43 24 53 22 4 -1 7
2 7 6 0 5 18 17 40 28 22 10 40 22 40 27 0 4 7 7 15 7 8 0 15 4 15 9 0 5 14
14 30 21 17 7 30 16 30 20 0 4 14 13 30 20 17 7 30 15 30 19 0 3 18 17 40 31
22 14 40 28 40 32 0 5 6 8 14 8 8 0 16 4 18 9 2 5 35 34 73 66 134 108 380
359 369 376 -3 5 -85 75 -182 156 -97 81 -179 150 -182 153 -3 3 -30 25 -60
50 -30 25 -57 47 -60 50 -4 4 -61 51 -133 110 -10 8 -29 24 -41 35 -12 11 -42
36 -66 55 -24 19 -54 44 -67 55 -12 11 -36 31 -53 45 -17 14 -41 34 -54 45
-13 11 -43 36 -66 55 -23 19 -53 44 -65 55 -13 11 -41 34 -62 52 -21 17 -51
43 -68 57 -16 14 -32 26 -35 26 -3 0 -24 -23 -45 -52 -113 -148 -298 -299
-473 -387 -72 -36 -248 -96 -307 -105 -23 -4 -52 -9 -65 -12 -14 -3 -52 -7
-85 -9 -33 -2 -62 -4 -65 -5 -18 -5 -195 5 -247 15 -153 27 -242 55 -371 117
-104 49 -148 78 -262 170 -119 95 -237 233 -321 373 -16 27 -80 152 -84 165
-1 3 -6 16 -12 30 -46 107 -82 235 -98 340 -3 19 -8 51 -11 70 -9 54 -10 317
-1 390 5 36 15 96 24 134 8 37 16 73 18 80 1 6 4 18 7 26 3 8 16 47 28 85 37
115 164 362 192 373 4 2 8 8 8 14 0 28 171 209 290 306 70 58 274 172 341 191
8 2 48 14 90 27 42 12 96 26 120 29 24 4 47 9 52 12 5 3 70 7 145 8 239 5 412
-31 612 -130 107 -53 150 -78 150 -87 0 -5 5 -8 12 -8 31 0 232 -186 310 -287
22 -29 43 -53 46 -53 5 0 98 74 137 109 11 9 61 50 110 91 50 40 92 75 95 79
3 3 21 18 42 33 20 15 42 33 50 40 11 11 37 33 145 123 7 5 18 15 25 20 7 6
58 48 113 93 55 46 118 98 139 115 21 18 73 61 115 96 98 82 133 110 172 141
18 14 39 31 46 39 15 15 20 7 -63 100 -58 64 -161 166 -228 225 -32 28 -64 56
-71 63 -6 6 -54 43 -106 82 -52 39 -98 74 -104 79 -13 10 -66 44 -87 57 -9 5
-50 30 -90 54 -165 101 -414 215 -591 272 -167 54 -404 108 -538 124 -30 3
-70 8 -89 11 -57 9 -543 12 -572 4z"/>
<path d="M7150 6625 c-291 -66 -515 -248 -640 -520 -22 -47 -37 -85 -36 -85 2
0 -3 -21 -11 -47 -22 -73 -28 -128 -25 -243 2 -125 5 -147 27 -225 24 -86 52
-150 100 -230 43 -72 50 -81 146 -175 73 -73 208 -168 244 -174 5 -1 17 -6 25
-11 8 -5 20 -11 25 -12 6 -1 48 -14 95 -29 71 -22 105 -27 210 -28 149 -1 215
6 295 34 95 32 165 63 165 72 0 4 6 8 13 8 23 0 128 81 194 148 96 98 199 267
219 359 1 6 7 27 13 45 20 63 23 93 25 213 1 138 -4 182 -34 280 -23 75 -78
198 -92 203 -4 2 -8 8 -8 14 0 13 -93 129 -141 177 -114 113 -306 212 -459
236 -102 17 -253 13 -350 -10z"/>
<path d="M5900 5310 c0 -5 -12 -22 -27 -38 -24 -25 -78 -86 -140 -158 -10 -12
-63 -74 -117 -138 -55 -64 -103 -116 -108 -116 -4 0 -8 -6 -8 -14 0 -8 -4 -16
-8 -18 -5 -1 -66 -70 -137 -153 -71 -82 -132 -152 -135 -155 -3 -3 -59 -68
-125 -145 -66 -77 -127 -147 -135 -156 -26 -29 -74 -84 -120 -139 -25 -29 -50
-58 -56 -64 -5 -6 -39 -45 -74 -86 -35 -41 -72 -84 -82 -95 -10 -11 -26 -29
-36 -41 -9 -12 -40 -48 -69 -80 -28 -32 -60 -69 -70 -80 -10 -12 -39 -45 -64
-75 -26 -30 -66 -76 -89 -103 l-42 -49 34 -26 c18 -14 42 -35 54 -46 11 -11
37 -33 57 -48 21 -16 49 -39 64 -53 15 -14 42 -37 61 -52 19 -15 40 -32 46
-37 6 -6 34 -28 61 -50 28 -22 55 -45 60 -51 6 -6 35 -30 65 -55 71 -58 98
-80 126 -104 12 -11 40 -34 61 -52 21 -17 49 -40 63 -52 14 -11 30 -24 35 -28
37 -29 121 -99 125 -104 3 -4 50 -43 105 -88 55 -46 117 -98 137 -117 21 -19
41 -34 46 -34 5 0 28 23 53 50 24 28 57 65 73 83 16 18 45 53 66 79 21 26 40
44 44 41 3 -4 6 -1 6 5 0 6 19 33 43 60 23 27 65 75 92 106 28 32 55 64 60 70
6 6 55 63 109 126 55 63 103 117 108 118 4 2 8 8 8 13 0 4 15 23 33 41 17 18
52 58 77 88 25 30 52 62 60 70 8 9 26 30 40 46 14 16 53 61 86 100 33 39 69
80 80 91 10 12 37 42 59 69 66 79 79 93 110 128 17 18 49 55 72 82 23 27 50
59 60 70 10 12 41 48 68 79 28 32 55 63 60 69 6 6 37 43 70 81 32 39 70 81 83
95 l24 25 -45 40 c-24 22 -68 60 -97 85 -64 55 -125 108 -154 135 -13 11 -49
42 -82 70 -32 27 -76 65 -96 84 -21 19 -46 40 -57 47 -10 8 -34 28 -53 46 -19
18 -48 44 -64 58 -122 103 -242 207 -255 220 -8 8 -40 35 -69 60 -29 25 -58
50 -64 55 -43 41 -149 125 -157 125 -5 0 -9 -4 -9 -10z"/>
</g>
</svg>
